<svg xmlns="http://www.w3.org/2005/svg" viewBox="0 0 200 60" preserveAspectRatio="none">
  <!-- Minimalist, scalable rough ink brush stroke path -->
  <path d="M 5,30 
           Q 15,10 40,15 
           T 100,10 
           T 160,15 
           Q 185,10 195,30 
           Q 190,50 160,45 
           T 100,50 
           T 40,45 
           Q 15,50 5,30 
           Z" 
        fill="black"/>
  <!-- Jittered edge artifacts for the "dry brush" effect -->
  <path d="M 2,28 Q 8,5 25,8 L 18,12 Z
           M 10,40 Q 5,45 20,48 L 15,42 Z
           M 180,18 Q 195,5 198,25 L 185,20 Z
           M 185,45 Q 190,55 170,52 L 175,48 Z
           M 50,8 Q 60,0 70,6 L 65,10 Z
           M 130,52 Q 140,60 150,54 L 145,50 Z" 
        fill="black"/>
</svg>
